<svg width="560" height="400" viewBox="0 0 611 456" fill="none" xmlns="http://www.w3.org/2000/svg">
<path d="M611 400.083H0V400.388H611V400.083Z" fill="#EBEBEB"/>
<path d="M385.749 408.405H354.637V408.71H385.749V408.405Z" fill="#EBEBEB"/>
<path d="M556.548 415.016H482.824V415.321H556.548V415.016Z" fill="#EBEBEB"/>
<path d="M348.013 408.551H271.846V408.857H348.013V408.551Z" fill="#EBEBEB"/>
<path d="M222.453 417.692H206.518V417.997H222.453V417.692Z" fill="#EBEBEB"/>
<path d="M310.498 417.692H237.936V417.997H310.498V417.692Z" fill="#EBEBEB"/>
<path d="M111.092 412.535H64.1062V412.84H111.092V412.535Z" fill="#EBEBEB"/>
<path d="M289.614 345.582H53.658C51.8096 345.578 50.0379 344.842 48.732 343.534C47.4261 342.225 46.6926 340.452 46.6926 338.604V6.91652C46.7087 5.07866 47.4493 3.32137 48.7535 2.02634C50.0576 0.731316 51.8201 0.00314835 53.658 0H289.614C291.465 0 293.239 0.73514 294.548 2.0437C295.857 3.35226 296.592 5.12704 296.592 6.97762V338.604C296.592 340.455 295.857 342.229 294.548 343.538C293.239 344.846 291.465 345.582 289.614 345.582ZM53.658 0.244401C51.8906 0.247638 50.1966 0.952018 48.948 2.20293C47.6994 3.45385 46.9981 5.14908 46.9981 6.91652V338.604C46.9981 340.371 47.6994 342.067 48.948 343.318C50.1966 344.568 51.8906 345.273 53.658 345.276H289.614C291.383 345.273 293.078 344.569 294.328 343.318C295.579 342.068 296.283 340.373 296.286 338.604V6.91652C296.283 5.14796 295.579 3.45275 294.328 2.20219C293.078 0.951621 291.383 0.247631 289.614 0.244401H53.658Z" fill="#EBEBEB"/>
<path d="M553.945 345.582H317.977C316.127 345.578 314.354 344.842 313.046 343.534C311.738 342.226 311.002 340.454 310.999 338.604V6.91652C311.018 5.07755 311.762 3.32027 313.068 2.02558C314.374 0.730889 316.138 0.00311401 317.977 0H553.945C555.781 0.00635989 557.54 0.735948 558.842 2.03063C560.143 3.32531 560.882 5.08077 560.898 6.91652V338.604C560.898 340.45 560.166 342.221 558.863 343.529C557.56 344.837 555.791 345.575 553.945 345.582ZM317.977 0.244401C316.208 0.247631 314.513 0.951621 313.262 2.20219C312.012 3.45275 311.308 5.14796 311.305 6.91652V338.604C311.308 340.373 312.012 342.068 313.262 343.318C314.513 344.569 316.208 345.273 317.977 345.276H553.945C555.713 345.273 557.409 344.569 558.659 343.318C559.91 342.068 560.614 340.373 560.617 338.604V6.91652C560.614 5.14796 559.91 3.45275 558.659 2.20219C557.409 0.951621 555.713 0.247631 553.945 0.244401H317.977Z" fill="#EBEBEB"/>
<path d="M239.463 294.099H158.322L153.398 237.276H234.539L239.463 294.099Z" fill="#E6E6E6"/>
<path d="M243.667 294.099H162.526L157.601 237.276H238.742L243.667 294.099Z" fill="#F0F0F0"/>
<path d="M173.622 281.891L170.909 249.471H227.646L230.359 281.891H173.622Z" fill="white"/>
<path d="M257.708 294.099H248.188V400.083H257.708V294.099Z" fill="#E6E6E6"/>
<path d="M260.714 294.099H254.103V400.083H260.714V294.099Z" fill="#F0F0F0"/>
<path d="M168.563 305.793H260.714V294.099H168.563V305.793Z" fill="#F0F0F0"/>
<path d="M171.813 305.793H162.294V400.083H171.813V305.793Z" fill="#E6E6E6"/>
<path d="M174.819 305.793H168.208V400.083H174.819V305.793Z" fill="#F0F0F0"/>
<path d="M104.053 305.793H94.5339V400.083H104.053V305.793Z" fill="#E6E6E6"/>
<path d="M107.06 305.793H100.448V400.083H107.06V305.793Z" fill="#F0F0F0"/>
<path d="M197.463 305.793H187.944V400.083H197.463V305.793Z" fill="#E6E6E6"/>
<path d="M200.457 305.793H193.846V400.083H200.457V305.793Z" fill="#F0F0F0"/>
<path d="M168.563 294.099H94.5339V305.793H168.563V294.099Z" fill="#E6E6E6"/>
<path d="M444.612 29.829H158.261V189.251H444.612V29.829Z" fill="#E0E0E0"/>
<path d="M460.34 29.829H159.703V189.251H460.34V29.829Z" fill="#F5F5F5"/>
<path d="M455.427 184.339V34.7415L164.616 34.7415V184.339L455.427 184.339Z" fill="white"/>
<path d="M282.367 184.339L337.272 34.7415H246.661L191.756 184.339H282.367Z" fill="#F5F5F5"/>
<path d="M369.582 184.339L424.486 34.7415H356.127L301.223 184.339H369.582Z" fill="#F5F5F5"/>
<path d="M535.37 247.822H511.028V400.083H535.37V247.822Z" fill="#E6E6E6"/>
<path d="M528.967 400.083H535.37V388.364H522.258L528.967 400.083Z" fill="#FAFAFA"/>
<path d="M310.938 247.822H286.596V400.083H310.938V247.822Z" fill="#E6E6E6"/>
<path d="M535.37 247.822H305.353V396.918H535.37V247.822Z" fill="#FAFAFA"/>
<path d="M531.02 295.932H309.716V253.822H531.02V295.932ZM310.938 294.71H529.798V255.044H310.938V294.71Z" fill="#E6E6E6"/>
<path d="M492.063 274.266H352.962C346.51 274.266 340.29 269.06 335.854 259.968L335.439 259.101H509.574L509.158 259.968C504.686 269.06 498.576 274.266 492.063 274.266ZM337.443 260.286C341.573 268.388 347.219 273.007 352.962 273.007H492.063C497.831 273.007 503.452 268.388 507.582 260.286H337.443Z" fill="#E6E6E6"/>
<path d="M311.757 400.083H305.353V388.364H318.465L311.757 400.083Z" fill="#FAFAFA"/>
<path d="M531.02 343.382H309.716V301.321H531.02V343.382ZM310.938 342.16H529.798V302.543H310.938V342.16Z" fill="#E6E6E6"/>
<path d="M492.063 321.765H352.962C346.51 321.765 340.29 316.547 335.854 307.467L335.439 306.588H509.574L509.158 307.467C504.686 316.498 498.576 321.765 492.063 321.765ZM337.443 307.81C341.573 315.911 347.219 320.543 352.962 320.543H492.063C497.831 320.543 503.452 315.911 507.582 307.81H337.443Z" fill="#E6E6E6"/>
<path d="M531.02 390.918H309.716V348.808H531.02V390.918ZM310.938 389.696H529.798V350.03H310.938V389.696Z" fill="#E6E6E6"/>
<path d="M492.063 369.252H352.962C346.51 369.252 340.29 364.046 335.854 354.967L335.439 354.087H509.574L509.158 354.967C504.686 364.046 498.576 369.252 492.063 369.252ZM337.443 355.309C341.573 363.411 347.219 368.03 352.962 368.03H492.063C497.831 368.03 503.452 363.411 507.582 355.309H337.443Z" fill="#E6E6E6"/>
<path d="M147.838 267.96V270.917H145.956L144.392 294.099H121.369L119.817 270.917H117.923V267.96H147.838Z" fill="#E6E6E6"/>
<path d="M140.261 210.441C138.379 196.632 119.744 192.697 96.0982 192.184C73.6012 191.707 66.3914 183.752 66.3914 183.752C66.3914 183.752 66.4647 215.976 98.8843 227.659C129.667 238.73 142.155 224.274 140.261 210.441Z" fill="#E6E6E6"/>
<path d="M128.774 241.736C129.165 236.066 138.233 225.63 160.045 230.371C175.809 233.805 181.675 225.63 181.675 225.63C181.675 225.63 180.208 248.701 156.502 255.63C133.98 262.217 128.078 251.732 128.774 241.736Z" fill="#E6E6E6"/>
<path d="M133.748 276.661C133.871 276.662 133.992 276.636 134.104 276.586C134.216 276.535 134.316 276.461 134.396 276.367C135.972 274.498 134.677 270.025 132.893 263.83C130.595 255.887 127.736 245.989 130.155 238.815C131.496 235.026 133.063 231.321 134.848 227.72C138.269 220.485 141.227 214.278 138.758 207.703C138.72 207.599 138.661 207.503 138.585 207.421C138.509 207.339 138.418 207.274 138.316 207.227C138.215 207.181 138.105 207.155 137.994 207.152C137.883 207.148 137.772 207.167 137.667 207.206C137.563 207.246 137.468 207.306 137.387 207.382C137.306 207.459 137.241 207.551 137.196 207.653C137.151 207.755 137.126 207.865 137.124 207.976C137.121 208.087 137.141 208.198 137.182 208.302C139.394 214.155 136.717 219.826 133.32 227.011C131.513 230.67 129.922 234.432 128.554 238.278C125.976 245.952 128.909 256.131 131.267 264.294C132.66 269.182 134.102 274.07 133.112 275.292C133.034 275.376 132.974 275.476 132.936 275.585C132.898 275.694 132.883 275.81 132.892 275.925C132.902 276.04 132.935 276.151 132.989 276.253C133.044 276.354 133.119 276.443 133.21 276.514C133.366 276.625 133.557 276.677 133.748 276.661Z" fill="#E6E6E6"/>
<path d="M305.5 455.268C436.355 455.268 542.434 449.075 542.434 441.435C542.434 433.796 436.355 427.602 305.5 427.602C174.645 427.602 68.5664 433.796 68.5664 441.435C68.5664 449.075 174.645 455.268 305.5 455.268Z" fill="#F5F5F5"/>
<path d="M305.451 373.993H131.927L122.432 94.9249H295.956L305.451 373.993Z" fill="#407BFF"/>
<path d="M314.115 365.329H140.591L131.084 86.261H304.608L314.115 365.329Z" fill="#407BFF"/>
<path opacity="0.3" d="M314.115 365.329H140.591L131.084 86.261H304.608L314.115 365.329Z" fill="white"/>
<path d="M255.976 201.097C274.555 182.197 273.765 151.292 254.21 132.069C234.655 112.846 203.742 112.585 185.162 131.485C166.583 150.385 167.373 181.289 186.928 200.512C206.482 219.735 237.396 219.997 255.976 201.097Z" fill="#407BFF"/>
<path d="M260.861 166.302C261.111 172.952 259.659 179.555 256.645 185.487C253.391 191.88 248.42 197.24 242.29 200.966C236.16 204.691 229.113 206.635 221.94 206.579C214.598 206.539 207.396 204.57 201.056 200.868C194.716 197.166 189.46 191.862 185.818 185.487C182.421 179.646 180.523 173.055 180.294 166.302C180.069 161.066 180.91 155.838 182.767 150.938C184.625 146.037 187.459 141.565 191.098 137.793C194.737 134.021 199.105 131.029 203.936 128.997C208.768 126.966 213.962 125.938 219.203 125.976C229.999 126.052 240.352 130.285 248.109 137.795C255.867 145.304 260.433 155.513 260.861 166.302Z" fill="white"/>
<path opacity="0.6" d="M256.62 185.487C253.366 191.88 248.396 197.24 242.265 200.966C236.135 204.691 229.088 206.635 221.915 206.579C214.574 206.539 207.371 204.57 201.031 200.868C194.691 197.166 189.436 191.862 185.793 185.487C196.128 178.441 208.356 174.696 220.864 174.746C233.574 174.773 246 178.506 256.62 185.487Z" fill="#407BFF"/>
<path opacity="0.6" d="M233.123 165.297C239.955 158.347 239.665 146.983 232.474 139.915C225.284 132.846 213.916 132.75 207.085 139.7C200.253 146.65 200.543 158.014 207.734 165.082C214.924 172.151 226.291 172.247 233.123 165.297Z" fill="#407BFF"/>
<path d="M279.252 264.27H168.563L167.817 242.274H278.506L279.252 264.27Z" fill="white"/>
<path d="M280.596 303.581H169.895L169.149 281.585H279.85L280.596 303.581Z" fill="white"/>
<path d="M237.874 284.616L211.198 288.282C210.944 288.311 210.698 288.392 210.476 288.521C210.255 288.649 210.062 288.823 209.911 289.029C209.759 289.236 209.652 289.471 209.596 289.721C209.54 289.971 209.536 290.23 209.585 290.482L213.092 308.359C213.207 308.884 213.514 309.347 213.953 309.657C214.391 309.966 214.93 310.101 215.463 310.034L242.139 306.368C242.393 306.335 242.638 306.252 242.858 306.121C243.078 305.991 243.269 305.816 243.419 305.609C243.569 305.402 243.675 305.166 243.73 304.916C243.786 304.666 243.789 304.407 243.74 304.156L240.245 286.278C240.13 285.754 239.823 285.293 239.384 284.985C238.945 284.677 238.406 284.545 237.874 284.616ZM230.212 302.726L225.324 303.374L224.848 297.606C224.344 297.388 223.9 297.052 223.554 296.627C223.207 296.202 222.968 295.699 222.856 295.162C222.766 294.746 222.765 294.315 222.852 293.898C222.939 293.482 223.112 293.088 223.361 292.742C223.61 292.397 223.928 292.107 224.296 291.893C224.664 291.678 225.072 291.543 225.496 291.496C226.363 291.384 227.242 291.602 227.957 292.107C228.672 292.611 229.171 293.366 229.357 294.221C229.463 294.737 229.431 295.273 229.263 295.773C229.096 296.273 228.799 296.72 228.404 297.068L230.212 302.726Z" fill="#407BFF"/>
<path d="M235.235 283.651C234.763 283.711 234.286 283.592 233.897 283.319C233.509 283.045 233.236 282.636 233.133 282.172L232.791 280.425C232.303 278.04 230.966 275.913 229.029 274.439C227.092 272.965 224.686 272.243 222.257 272.408C221.032 272.478 219.836 272.811 218.75 273.384C217.665 273.957 216.715 274.757 215.966 275.73C215.218 276.702 214.687 277.825 214.41 279.021C214.133 280.217 214.118 281.458 214.363 282.661L214.754 284.677C214.8 284.901 214.798 285.131 214.75 285.354C214.701 285.577 214.606 285.787 214.472 285.971C214.337 286.155 214.165 286.309 213.968 286.423C213.77 286.537 213.551 286.608 213.325 286.632C212.852 286.698 212.372 286.582 211.982 286.308C211.592 286.033 211.32 285.621 211.223 285.154L210.893 283.455C210.557 281.868 210.546 280.229 210.86 278.637C211.174 277.045 211.807 275.533 212.72 274.192C213.633 272.851 214.808 271.708 216.174 270.832C217.54 269.957 219.069 269.366 220.669 269.097C224.138 268.514 227.698 269.29 230.611 271.262C233.523 273.235 235.564 276.254 236.31 279.691L236.701 281.695C236.747 281.922 236.744 282.155 236.693 282.38C236.643 282.605 236.545 282.817 236.406 283.002C236.268 283.186 236.092 283.339 235.89 283.451C235.688 283.563 235.465 283.631 235.235 283.651Z" fill="#407BFF"/>
<path d="M262.327 334.388H190.265L189.789 320.066H261.838L262.327 334.388Z" fill="#407BFF"/>
<path d="M227.561 253.272C227.582 253.794 227.498 254.315 227.312 254.804C227.126 255.293 226.843 255.738 226.479 256.114C226.116 256.49 225.68 256.788 225.198 256.991C224.716 257.193 224.198 257.296 223.675 257.292C222.597 257.284 221.564 256.862 220.789 256.114C220.013 255.366 219.555 254.348 219.508 253.272C219.486 252.749 219.571 252.228 219.757 251.739C219.943 251.251 220.226 250.805 220.59 250.429C220.953 250.053 221.389 249.755 221.871 249.552C222.353 249.35 222.871 249.248 223.394 249.251C224.472 249.257 225.507 249.678 226.283 250.426C227.059 251.175 227.517 252.194 227.561 253.272Z" fill="#263238"/>
<path d="M210.184 253.272C210.207 253.795 210.124 254.317 209.939 254.806C209.753 255.295 209.47 255.742 209.106 256.118C208.743 256.494 208.306 256.793 207.823 256.994C207.34 257.196 206.822 257.298 206.298 257.292C205.222 257.284 204.19 256.861 203.417 256.113C202.643 255.364 202.187 254.347 202.143 253.272C202.122 252.749 202.207 252.228 202.393 251.739C202.579 251.251 202.862 250.805 203.225 250.429C203.588 250.053 204.024 249.755 204.506 249.552C204.988 249.35 205.507 249.248 206.029 249.251C207.107 249.257 208.14 249.678 208.914 250.427C209.688 251.176 210.143 252.195 210.184 253.272Z" fill="#263238"/>
<path d="M192.917 253.272C192.939 253.794 192.854 254.315 192.668 254.804C192.482 255.293 192.199 255.738 191.835 256.114C191.472 256.49 191.036 256.788 190.554 256.991C190.072 257.193 189.554 257.296 189.031 257.292C187.954 257.287 186.92 256.865 186.146 256.116C185.372 255.367 184.917 254.348 184.876 253.272C184.855 252.749 184.94 252.228 185.126 251.739C185.311 251.251 185.595 250.805 185.958 250.429C186.321 250.053 186.757 249.755 187.239 249.552C187.721 249.35 188.239 249.248 188.762 249.251C189.839 249.257 190.873 249.678 191.647 250.427C192.421 251.176 192.876 252.195 192.917 253.272Z" fill="#263238"/>
<path d="M244.877 253.272C244.898 253.794 244.813 254.315 244.627 254.804C244.441 255.293 244.158 255.738 243.795 256.114C243.432 256.49 242.996 256.788 242.514 256.991C242.032 257.193 241.513 257.296 240.991 257.292C239.913 257.287 238.88 256.865 238.106 256.116C237.332 255.367 236.877 254.348 236.836 253.272C236.818 252.751 236.905 252.232 237.094 251.746C237.282 251.26 237.567 250.817 237.932 250.445C238.296 250.072 238.732 249.778 239.214 249.579C239.696 249.38 240.213 249.281 240.734 249.288C241.803 249.296 242.828 249.714 243.599 250.455C244.369 251.196 244.827 252.204 244.877 253.272Z" fill="#263238"/>
<path d="M262.192 253.272C262.216 253.795 262.132 254.317 261.947 254.806C261.762 255.295 261.478 255.742 261.115 256.118C260.751 256.494 260.314 256.793 259.832 256.994C259.349 257.196 258.83 257.298 258.307 257.292C257.23 257.284 256.198 256.861 255.425 256.113C254.652 255.364 254.196 254.347 254.152 253.272C254.13 252.749 254.215 252.228 254.401 251.739C254.587 251.251 254.87 250.805 255.233 250.429C255.597 250.053 256.033 249.755 256.515 249.552C256.997 249.35 257.515 249.248 258.038 249.251C259.115 249.257 260.148 249.678 260.922 250.427C261.697 251.176 262.152 252.195 262.192 253.272Z" fill="#263238"/>
<path d="M408.038 145.76C409.663 148.375 411.02 150.868 412.413 153.471C413.806 156.074 415.064 158.689 416.299 161.365C418.817 166.784 420.901 172.394 422.531 178.143C422.751 178.864 422.91 179.634 423.093 180.379L423.362 181.516L423.496 182.078L423.655 183.007C423.931 185.114 423.802 187.254 423.276 189.312C422.433 192.509 421.15 195.573 419.464 198.416C416.448 203.584 412.803 208.358 408.612 212.628L403.468 208.742C406.05 203.995 408.347 199.098 410.348 194.078C411.239 191.866 411.866 189.557 412.217 187.198C412.33 186.478 412.296 185.742 412.119 185.035L411.631 183.544C411.435 182.933 411.252 182.322 411.02 181.699C409.161 176.658 407.011 171.729 404.58 166.937C402.136 162.049 399.508 157.161 396.881 152.493L408.038 145.76Z" fill="#FF8B7B"/>
<path d="M404.775 207.043L399.154 210.013L405.606 217.565C405.606 217.565 409.639 214.84 409.822 210.685L404.775 207.043Z" fill="#FF8B7B"/>
<path d="M391.614 214.669L398.519 220.156L405.606 217.565L399.154 210.013L391.614 214.669Z" fill="#FF8B7B"/>
<path d="M368.005 105.776C367.871 106.461 367.394 106.937 366.954 106.852C366.514 106.766 366.258 106.131 366.392 105.459C366.527 104.787 367.003 104.237 367.455 104.383C367.908 104.53 368.14 105.092 368.005 105.776Z" fill="#263238"/>
<path d="M367.455 106.949C366.225 108.864 364.736 110.599 363.032 112.106C363.434 112.523 363.922 112.849 364.462 113.06C365.002 113.271 365.581 113.362 366.16 113.328L367.455 106.949Z" fill="#FF5652"/>
<path d="M365.256 130.925V122.909L375.863 124.131C375.863 124.131 375.692 131.023 369.753 133.051L365.256 130.925Z" fill="#FF8B7B"/>
<path d="M368.311 117.141L375.777 119.292L375.912 124.192L365.305 122.909L368.311 117.141Z" fill="#FF8B7B"/>
<path opacity="0.2" d="M375.777 119.292L368.311 117.141L366.856 119.927C366.936 122.122 367.622 124.253 368.838 126.082C370.055 127.911 371.755 129.368 373.749 130.29C375.031 128.498 375.781 126.38 375.911 124.18L375.777 119.292Z" fill="black"/>
<path d="M371.256 102.514C371.334 102.512 371.41 102.487 371.475 102.444C371.541 102.4 371.592 102.339 371.624 102.268C371.656 102.196 371.667 102.117 371.656 102.039C371.645 101.962 371.612 101.889 371.561 101.829C371.132 101.345 370.593 100.97 369.989 100.736C369.386 100.502 368.735 100.416 368.091 100.485C367.986 100.503 367.892 100.562 367.83 100.649C367.768 100.736 367.743 100.844 367.761 100.949C367.779 101.056 367.837 101.15 367.924 101.214C368.011 101.278 368.119 101.306 368.225 101.292C368.735 101.242 369.25 101.314 369.726 101.503C370.202 101.693 370.626 101.993 370.963 102.379C371 102.42 371.045 102.453 371.096 102.476C371.146 102.499 371.2 102.512 371.256 102.514Z" fill="#263238"/>
<path d="M386.873 118.143C385.651 124.436 384.893 133.149 389.317 137.341C389.317 137.341 387.606 143.719 375.875 143.719C363.032 143.719 369.704 138.123 369.704 138.123C375.044 136.461 374.995 130.387 373.773 125.499L386.873 118.143Z" fill="#FF8B7B"/>
<path d="M391.7 141.544C392.848 139.931 392.8 134.811 391.578 133.907C389.61 132.453 381.166 132.11 369.814 134.726C371.036 139.687 368.408 142.277 368.408 142.277L391.7 141.544Z" fill="#407BFF"/>
<path d="M429.9 431.659C429.551 431.782 429.181 431.834 428.812 431.813C428.443 431.792 428.082 431.698 427.749 431.537C427.623 431.42 427.537 431.266 427.502 431.098C427.466 430.929 427.485 430.754 427.554 430.596C427.592 430.464 427.659 430.342 427.75 430.238C427.841 430.135 427.953 430.053 428.079 429.997C429.24 429.435 431.904 430.523 432.026 430.572C432.063 430.586 432.094 430.612 432.115 430.644C432.137 430.677 432.149 430.716 432.148 430.755C432.148 430.794 432.138 430.833 432.118 430.867C432.099 430.901 432.072 430.93 432.038 430.95C431.349 431.253 430.633 431.49 429.9 431.659ZM428.494 430.278C428.414 430.297 428.336 430.326 428.262 430.364C428.186 430.392 428.118 430.437 428.062 430.497C428.007 430.556 427.967 430.628 427.945 430.706C427.835 431.073 427.945 431.195 428.018 431.232C428.482 431.623 430.193 431.232 431.403 430.779C430.483 430.399 429.489 430.227 428.494 430.278Z" fill="#407BFF"/>
<path d="M431.989 430.963H431.891C430.914 430.682 428.836 429.203 428.812 428.238C428.811 428.084 428.863 427.935 428.958 427.815C429.054 427.695 429.188 427.611 429.337 427.578C429.482 427.524 429.637 427.502 429.792 427.515C429.946 427.527 430.095 427.574 430.23 427.651C431.378 428.238 432.111 430.608 432.136 430.718C432.153 430.748 432.162 430.782 432.162 430.816C432.162 430.85 432.153 430.884 432.136 430.914C432.117 430.933 432.094 430.947 432.068 430.956C432.043 430.964 432.016 430.967 431.989 430.963ZM429.545 427.92H429.447C429.203 428.005 429.203 428.128 429.203 428.189C429.203 428.763 430.596 429.924 431.647 430.388C431.39 429.704 430.828 428.348 430.083 427.944C429.917 427.869 429.729 427.86 429.557 427.92H429.545Z" fill="#407BFF"/>
<path d="M366.429 433.101C365.329 433.101 364.266 432.942 363.912 432.454C363.819 432.323 363.769 432.167 363.769 432.007C363.769 431.848 363.819 431.692 363.912 431.561C363.981 431.442 364.075 431.338 364.186 431.256C364.298 431.174 364.425 431.116 364.559 431.085C365.989 430.694 368.995 432.405 369.117 432.478C369.155 432.496 369.185 432.527 369.203 432.565C369.221 432.602 369.225 432.645 369.215 432.686C369.211 432.728 369.193 432.767 369.164 432.798C369.135 432.828 369.098 432.849 369.056 432.857C368.189 433.016 367.31 433.098 366.429 433.101ZM365.073 431.427C364.943 431.406 364.811 431.406 364.681 431.427C364.599 431.444 364.52 431.478 364.451 431.526C364.382 431.574 364.323 431.636 364.278 431.708C364.132 431.965 364.193 432.087 364.278 432.16C364.682 432.722 366.844 432.735 368.445 432.502C367.4 431.931 366.255 431.566 365.073 431.427Z" fill="#407BFF"/>
<path d="M369.044 432.857H368.958C367.92 432.393 365.867 430.535 366.026 429.557C366.026 429.325 366.221 429.044 366.783 428.995C366.984 428.972 367.188 428.99 367.381 429.049C367.575 429.108 367.754 429.206 367.907 429.338C368.691 430.274 369.161 431.432 369.252 432.649C369.251 432.684 369.243 432.718 369.229 432.75C369.214 432.782 369.193 432.81 369.166 432.832C369.128 432.852 369.086 432.86 369.044 432.857ZM366.942 429.374H366.82C366.453 429.374 366.429 429.545 366.429 429.594C366.331 430.181 367.724 431.647 368.787 432.283C368.694 431.302 368.297 430.375 367.651 429.631C367.45 429.46 367.193 429.368 366.93 429.374H366.942Z" fill="#407BFF"/>
<path d="M378.478 432.661H369.887L369.032 412.755H377.622L378.478 432.661Z" fill="#FF8B7B"/>
<path d="M441.57 428.678L433.174 430.498L424.73 411.961L433.138 410.14L441.57 428.678Z" fill="#FF8B7B"/>
<path d="M432.356 429.655L441.802 427.614C441.967 427.579 442.139 427.601 442.29 427.677C442.441 427.752 442.562 427.877 442.633 428.03L445.908 435.142C445.995 435.314 446.04 435.505 446.039 435.698C446.039 435.891 445.993 436.081 445.904 436.252C445.816 436.424 445.688 436.572 445.532 436.685C445.375 436.798 445.194 436.872 445.003 436.902C441.704 437.549 440.054 437.708 435.912 438.6C433.358 439.162 427.59 440.568 424.058 441.325C420.527 442.083 419.317 438.698 420.698 438.075C426.869 435.252 429.435 432.771 431.109 430.462C431.412 430.049 431.856 429.762 432.356 429.655Z" fill="#263238"/>
<path d="M369.948 431.659H379.333C379.504 431.66 379.669 431.719 379.802 431.825C379.935 431.932 380.028 432.08 380.066 432.246L381.765 439.883C381.815 440.068 381.821 440.262 381.782 440.449C381.743 440.636 381.661 440.812 381.542 440.962C381.424 441.111 381.271 441.231 381.098 441.311C380.924 441.391 380.734 441.43 380.543 441.423C377.158 441.362 372.27 441.166 368.017 441.166C363.032 441.166 358.742 441.435 352.901 441.435C349.37 441.435 348.392 437.867 349.871 437.537C356.592 436.071 362.091 435.912 367.895 432.331C368.505 431.923 369.215 431.691 369.948 431.659Z" fill="#263238"/>
<path d="M404.69 139.308C412.743 141.153 419.354 161.719 419.354 161.719L403.26 174.025C399.083 169.559 396.135 164.085 394.706 158.139C391.859 147.361 396.454 137.402 404.69 139.308Z" fill="#407BFF"/>
<path opacity="0.4" d="M404.69 139.308C412.743 141.153 419.354 161.719 419.354 161.719L403.26 174.025C399.083 169.559 396.135 164.085 394.706 158.139C391.859 147.361 396.454 137.402 404.69 139.308Z" fill="black"/>
<path d="M362.323 163.834C360.319 165.996 358.315 167.927 356.213 169.944C355.174 170.921 354.123 171.899 353.048 172.84L351.423 174.269L351.019 174.624L350.323 175.186C349.606 175.759 348.812 176.228 347.964 176.579C347.021 176.979 346.007 177.187 344.983 177.19C344.107 177.194 343.238 177.041 342.417 176.738C341.505 176.391 340.674 175.863 339.973 175.186C339.077 174.311 338.421 173.221 338.066 172.021C337.881 171.429 337.762 170.818 337.712 170.2C337.648 169.477 337.648 168.749 337.712 168.025C337.773 167.438 337.846 166.925 337.944 166.449C338.278 164.782 338.753 163.147 339.362 161.561C339.911 160.052 340.544 158.576 341.256 157.137C342.038 155.585 342.783 154.449 343.529 153.153C346.556 148.193 350.011 143.508 353.854 139.149C357.659 134.816 361.852 130.841 366.38 127.271L370.877 131.903C367.724 136.131 364.62 140.664 361.749 145.125C358.891 149.56 356.28 154.149 353.928 158.872C353.402 160.021 352.706 161.316 352.376 162.245C351.939 163.324 351.559 164.425 351.239 165.544C350.931 166.552 350.699 167.582 350.543 168.624C350.535 168.787 350.535 168.95 350.543 169.113C350.543 169.21 350.543 169.259 350.543 169.003C350.523 168.728 350.469 168.458 350.384 168.196C350.12 167.33 349.636 166.547 348.979 165.923C348.394 165.386 347.709 164.971 346.962 164.701C346.306 164.453 345.611 164.324 344.909 164.322C344.235 164.314 343.565 164.443 342.942 164.701C342.731 164.787 342.527 164.889 342.331 165.007L342.795 164.579L344.274 163.235L347.195 160.497C349.125 158.677 351.068 156.734 352.901 154.925L362.323 163.834Z" fill="#FF8B7B"/>
<path opacity="0.2" d="M397.785 154.412C402.16 158.738 403.59 166.632 403.895 173.475L403.187 174.025C399.009 169.559 396.062 164.085 394.633 158.139C394.474 157.504 394.327 156.917 394.217 156.22L397.785 154.412Z" fill="black"/>
<path d="M353.781 147.862C352.022 157.149 350.922 176.225 356.018 213.984H402.038C402.356 206.933 397.92 172.497 404.726 139.247C399.641 138.27 394.498 137.621 389.329 137.304C382.817 136.93 376.289 136.93 369.777 137.304C367.627 137.499 365.5 137.817 363.667 138.147C361.229 138.575 358.979 139.733 357.214 141.467C355.448 143.202 354.251 145.432 353.781 147.862Z" fill="#407BFF"/>
<path opacity="0.4" d="M353.781 147.862C352.022 157.149 350.922 176.225 356.018 213.984H402.038C402.356 206.933 397.92 172.497 404.726 139.247C399.641 138.27 394.498 137.621 389.329 137.304C382.817 136.93 376.289 136.93 369.777 137.304C367.627 137.499 365.5 137.817 363.667 138.147C361.229 138.575 358.979 139.733 357.214 141.467C355.448 143.202 354.251 145.432 353.781 147.862Z" fill="black"/>
<path opacity="0.2" d="M360.82 161.634L352.511 159.642C352.254 164.677 352.23 170.909 352.596 178.62C356.421 174.269 361.309 167.475 360.82 161.634Z" fill="black"/>
<path opacity="0.2" d="M369.032 412.755L369.472 423.02H378.075L377.635 412.755H369.032Z" fill="black"/>
<path opacity="0.2" d="M433.138 410.14L424.73 411.961L429.081 421.517L437.488 419.696L433.138 410.14Z" fill="black"/>
<path d="M390.954 108.954C388.755 117.19 387.875 122.127 382.792 125.548C375.154 130.754 365.622 124.791 365.378 116.09C365.109 108.233 368.763 96.0736 377.598 94.4117C379.54 94.0473 381.542 94.1834 383.416 94.807C385.291 95.4306 386.975 96.5212 388.312 97.9761C389.648 99.4309 390.592 101.202 391.054 103.123C391.517 105.043 391.482 107.05 390.954 108.954Z" fill="#FF8B7B"/>
<path d="M371.671 109.259C371.256 108.159 369.362 99.6419 371.146 97.4301C372.93 95.2182 393.276 96.8191 396.282 99.7763C401.28 104.664 397.81 109.064 392.347 114.721C388.242 118.974 388.083 123.764 386.005 124.497C382.339 125.719 376.743 124.571 375.618 120.697C374.494 116.823 371.671 109.259 371.671 109.259Z" fill="#263238"/>
<path d="M393.814 90.0859C386.629 87.0309 373.15 90.4158 365.867 88.6561C365.774 91.3643 366.665 94.0145 368.374 96.117C370.084 98.2195 372.496 99.6322 375.166 100.094C381.208 101.245 387.346 101.814 393.496 101.793C401.488 101.426 399.924 92.6887 393.814 90.0859Z" fill="#263238"/>
<path d="M394.938 100.033C397.563 100.291 400.207 99.7862 402.551 98.5787C403.896 101.829 396.502 102.721 394.938 100.033Z" fill="#263238"/>
<path d="M375.582 109.601C375.417 111.72 374.558 113.726 373.138 115.308C371.256 117.373 369.301 116.078 368.971 113.573C368.677 111.3 369.288 107.463 371.586 106.363C373.883 105.263 375.741 107.047 375.582 109.601Z" fill="#FF8B7B"/>
<path d="M372.331 214.021C372.331 214.021 382.107 279.704 387.447 304.315C393.301 331.26 424.755 420.405 424.755 420.405L440.14 417.069C440.14 417.069 418.144 344.409 413.256 306.734C409.468 277.797 402.026 213.997 402.026 213.997L372.331 214.021Z" fill="#407BFF"/>
<path d="M421.065 415.284C421.004 415.284 423.936 420.857 423.936 420.857L441.24 417.105L439.786 411.9L421.065 415.284Z" fill="#263238"/>
<path opacity="0.3" d="M378.502 237.422C389.781 239.634 388.584 281.695 387.228 303.337C383.977 288.038 379.211 258.612 375.961 237.728C376.748 237.339 377.645 237.231 378.502 237.422Z" fill="black"/>
<path d="M356.017 214.021C356.017 214.021 354.796 278.286 355.773 304.449C356.751 331.712 366.27 420.979 366.27 420.979H380.836C380.836 420.979 381.362 333.301 382.058 306.526C382.767 277.345 386.286 213.972 386.286 213.972L356.017 214.021Z" fill="#407BFF"/>
<path d="M363.472 415.236C363.398 415.236 364.29 421.272 364.29 421.272H381.997L382.486 415.883L363.472 415.236Z" fill="#263238"/>
<path d="M371.793 150.721C375.912 161.829 351.704 174.917 351.704 174.917L341.219 161.475C341.219 161.475 348.27 147.52 356.824 141.239C367.394 133.491 368.653 142.265 371.793 150.721Z" fill="#407BFF"/>
<path opacity="0.4" d="M371.793 150.721C375.912 161.829 351.704 174.917 351.704 174.917L341.219 161.475C341.219 161.475 348.27 147.52 356.824 141.239C367.394 133.491 368.653 142.265 371.793 150.721Z" fill="black"/>
<path d="M466.645 66.3913C491.002 66.3913 510.747 53.8078 510.747 38.2853C510.747 22.7627 491.002 10.1793 466.645 10.1793C442.288 10.1793 422.543 22.7627 422.543 38.2853C422.543 53.8078 442.288 66.3913 466.645 66.3913Z" fill="#407BFF"/>
<path d="M450.735 52.436C447.83 52.4267 445.021 51.3937 442.801 49.5186C440.582 47.6436 439.095 45.0464 438.6 42.1834C438.114 39.0823 438.814 35.9119 440.56 33.3032C442.306 30.6946 444.97 28.8391 448.022 28.106C450.527 27.5289 453.149 27.7513 455.521 28.7421C457.893 29.7328 459.894 31.4421 461.244 33.6294L489.558 27.7883C490.646 27.55 491.784 27.7309 492.744 28.295C493.705 28.8591 494.417 29.7647 494.739 30.8311C494.887 31.3917 494.92 31.9767 494.834 32.5502C494.748 33.1237 494.547 33.6738 494.241 34.1668C493.936 34.6597 493.533 35.0852 493.058 35.4173C492.582 35.7493 492.044 35.9809 491.476 36.0979L490.743 36.2445C490.634 36.2641 490.531 36.3084 490.442 36.3741C490.353 36.4398 490.281 36.5251 490.23 36.6234C490.185 36.7232 490.161 36.8315 490.161 36.9411C490.161 37.0507 490.185 37.159 490.23 37.2588L490.731 38.5541C490.899 38.974 490.915 39.4392 490.777 39.8697C490.638 40.3002 490.354 40.669 489.973 40.9126C489.673 41.0982 489.419 41.3498 489.23 41.6484C489.042 41.947 488.924 42.2846 488.886 42.6356C488.85 43.0384 488.687 43.4196 488.422 43.7246C488.156 44.0297 487.801 44.243 487.407 44.3342L486.833 44.4564C486.435 44.5299 486.023 44.4748 485.659 44.2991C485.294 44.1233 484.995 43.836 484.804 43.4788C484.551 43.0526 484.17 42.7161 483.716 42.5163C483.262 42.3165 482.757 42.2634 482.272 42.3643C481.786 42.4652 481.344 42.7151 481.007 43.0791C480.67 43.4432 480.456 43.9033 480.393 44.3953C480.359 44.7955 480.198 45.1746 479.935 45.4777C479.671 45.7809 479.318 45.9924 478.926 46.0816L478.352 46.2038C477.954 46.2755 477.544 46.2195 477.179 46.0439C476.815 45.8684 476.515 45.5822 476.324 45.2262C476.14 44.9232 475.894 44.6635 475.601 44.4651C475.307 44.2668 474.974 44.1346 474.625 44.0775C474.155 44.021 473.722 43.7949 473.407 43.4416C473.092 43.0884 472.917 42.6323 472.914 42.159V40.7659C472.909 40.6569 472.881 40.5503 472.831 40.4533C472.781 40.3564 472.71 40.2713 472.625 40.204C472.539 40.1367 472.439 40.0888 472.333 40.0634C472.227 40.0381 472.117 40.0359 472.01 40.0572L462.979 41.9146C462.611 44.4165 461.481 46.7441 459.742 48.5808C458.004 50.4175 455.742 51.674 453.264 52.1794C452.432 52.3496 451.585 52.4356 450.735 52.436ZM448.291 29.218C445.519 29.8655 443.096 31.539 441.509 33.9016C439.921 36.2643 439.288 39.1406 439.737 41.9513C440.217 44.5662 441.618 46.9228 443.685 48.5947C445.752 50.2667 448.35 51.1436 451.007 51.0668C453.665 50.99 456.207 49.9646 458.175 48.1761C460.142 46.3876 461.404 43.9541 461.733 41.3158V40.8759L471.692 38.8596C471.978 38.7905 472.275 38.7859 472.563 38.8461C472.851 38.9063 473.121 39.0298 473.355 39.2076C473.589 39.3855 473.781 39.6132 473.916 39.8743C474.051 40.1354 474.126 40.4233 474.136 40.717V42.1101C474.139 42.276 474.199 42.4358 474.306 42.5627C474.412 42.6896 474.56 42.7758 474.723 42.8067C475.257 42.8832 475.767 43.0803 476.213 43.3831C476.66 43.6858 477.032 44.0863 477.301 44.5541C477.366 44.686 477.47 44.7945 477.599 44.8645C477.728 44.9346 477.876 44.9628 478.022 44.9452L478.584 44.823C478.727 44.7863 478.854 44.7047 478.946 44.5902C479.038 44.4758 479.092 44.3346 479.097 44.1875C479.174 43.4268 479.491 42.7103 480.002 42.1415C480.513 41.5727 481.192 41.1811 481.94 41.0233C482.688 40.8655 483.467 40.9497 484.164 41.2637C484.862 41.5777 485.441 42.1052 485.818 42.77C485.881 42.9009 485.983 43.0089 486.11 43.0791C486.237 43.1492 486.383 43.1778 486.527 43.161L487.114 43.0388C487.254 43 487.378 42.9174 487.468 42.8031C487.558 42.6888 487.61 42.5488 487.615 42.4034C487.675 41.8669 487.858 41.3513 488.148 40.8959C488.438 40.4406 488.828 40.0576 489.289 39.7761C489.424 39.679 489.522 39.5397 489.568 39.3803C489.615 39.2209 489.607 39.0506 489.546 38.8963L489.045 37.6009C488.941 37.3339 488.897 37.0475 488.915 36.7616C488.934 36.4758 489.015 36.1975 489.152 35.9461C489.289 35.6948 489.48 35.4764 489.711 35.3063C489.941 35.1362 490.206 35.0185 490.486 34.9614L491.232 34.8026C491.635 34.7166 492.017 34.55 492.355 34.313C492.692 34.076 492.979 33.7733 493.197 33.4231C493.414 33.0728 493.56 32.6823 493.623 32.2747C493.686 31.8671 493.667 31.4509 493.566 31.051C493.327 30.282 492.807 29.6316 492.109 29.2304C491.411 28.8293 490.587 28.707 489.802 28.8881L460.694 34.937L460.474 34.5582C459.305 32.4762 457.489 30.8315 455.302 29.8725C453.115 28.9135 450.676 28.6924 448.352 29.2425L448.291 29.218ZM450.735 47.8902C449.217 47.9071 447.727 47.4825 446.446 46.6682C444.93 45.6734 443.807 44.1837 443.267 42.4533C442.727 40.7229 442.804 38.8588 443.485 37.1787C444.165 35.4987 445.408 34.1067 447 33.2402C448.592 32.3736 450.436 32.0861 452.216 32.4267C453.996 32.7672 455.604 33.7147 456.764 35.1077C457.924 36.5006 458.565 38.2528 458.577 40.0654C458.59 41.8781 457.974 43.6391 456.833 45.0481C455.693 46.4571 454.099 47.427 452.323 47.7924C451.803 47.8866 451.275 47.9275 450.747 47.9146L450.735 47.8902ZM450.735 33.4584C450.28 33.461 449.825 33.506 449.378 33.5928C448.527 33.7741 447.72 34.1214 447.003 34.6147C446.286 35.108 445.673 35.7377 445.199 36.4679C444.725 37.1981 444.4 38.0145 444.242 38.8704C444.083 39.7263 444.095 40.605 444.277 41.4564C444.458 42.3077 444.805 43.1149 445.298 43.8321C445.792 44.5492 446.422 45.1621 447.152 45.6359C447.882 46.1096 448.698 46.4349 449.554 46.5932C450.41 46.7514 451.289 46.7395 452.14 46.5582C453.418 46.2922 454.589 45.6537 455.504 44.7233C456.42 43.793 457.04 42.6123 457.286 41.3302C457.531 40.0482 457.392 38.7221 456.885 37.5191C456.378 36.3161 455.527 35.2901 454.438 34.5704C453.356 33.8509 452.083 33.4721 450.784 33.4828L450.735 33.4584Z" fill="white"/>
<path opacity="0.6" d="M430.755 82.8761C438.759 82.8761 445.248 78.7399 445.248 73.6377C445.248 68.5356 438.759 64.3994 430.755 64.3994C422.751 64.3994 416.262 68.5356 416.262 73.6377C416.262 78.7399 422.751 82.8761 430.755 82.8761Z" fill="#407BFF"/>
<path opacity="0.3" d="M407.696 86.6642C410.983 86.6642 413.647 84.9682 413.647 82.876C413.647 80.7839 410.983 79.0878 407.696 79.0878C404.409 79.0878 401.745 80.7839 401.745 82.876C401.745 84.9682 404.409 86.6642 407.696 86.6642Z" fill="#407BFF"/>
</svg>
